<?xml version="1.0" encoding="UTF-8"?>
<svg xmlns="http://www.w3.org/2000/svg" xmlns:xlink="http://www.w3.org/1999/xlink" width="16px" height="16px" viewBox="0 0 16 16" version="1.1">
<g id="surface1">
<path style=" stroke:none;fill-rule:nonzero;fill:rgb(0%,0%,0%);fill-opacity:1;" d="M 7.136719 0 C 5.027344 0 3.269531 1.523438 2.898438 3.527344 C 1.347656 3.671875 0.164062 4.96875 0.160156 6.527344 C 0.164062 8.191406 1.511719 9.539062 3.175781 9.539062 L 7.683594 9.539062 C 7.914062 9.539062 8.097656 9.355469 8.097656 9.125 C 8.097656 8.894531 7.914062 8.707031 7.683594 8.707031 L 3.175781 8.707031 C 1.96875 8.707031 0.996094 7.730469 0.992188 6.527344 C 0.996094 5.722656 1.441406 4.980469 2.152344 4.605469 C 2.863281 4.226562 3.726562 4.269531 4.394531 4.71875 C 4.582031 4.839844 4.835938 4.789062 4.960938 4.601562 C 5.089844 4.414062 5.042969 4.160156 4.859375 4.03125 C 4.523438 3.800781 4.140625 3.644531 3.738281 3.570312 C 4.089844 1.972656 5.503906 0.835938 7.136719 0.835938 C 8.890625 0.835938 10.367188 2.140625 10.585938 3.878906 C 10.472656 3.941406 10.367188 4.007812 10.261719 4.085938 C 10.132812 4.167969 10.0625 4.316406 10.078125 4.46875 C 10.089844 4.621094 10.1875 4.75 10.328125 4.8125 C 10.464844 4.875 10.628906 4.851562 10.75 4.757812 C 11.121094 4.492188 11.566406 4.347656 12.023438 4.347656 C 13.058594 4.351562 13.949219 5.078125 14.160156 6.089844 C 14.203125 6.3125 14.425781 6.460938 14.652344 6.414062 C 14.875 6.367188 15.023438 6.148438 14.976562 5.921875 C 14.683594 4.523438 13.453125 3.519531 12.023438 3.515625 C 11.808594 3.515625 11.59375 3.539062 11.382812 3.585938 C 11.039062 1.550781 9.265625 0 7.136719 0 Z M 10.597656 7.09375 C 10.492188 7.089844 10.382812 7.113281 10.289062 7.164062 C 10.207031 7.210938 10.132812 7.277344 10.082031 7.359375 C 10.023438 7.445312 9.984375 7.542969 9.964844 7.644531 C 9.941406 7.757812 9.929688 7.871094 9.929688 7.984375 C 9.929688 8.105469 9.941406 8.222656 9.964844 8.332031 C 9.988281 8.441406 10.027344 8.535156 10.082031 8.617188 C 10.132812 8.699219 10.207031 8.765625 10.289062 8.816406 C 10.375 8.863281 10.476562 8.886719 10.597656 8.886719 C 10.71875 8.886719 10.820312 8.863281 10.90625 8.816406 C 10.988281 8.765625 11.058594 8.699219 11.109375 8.617188 C 11.164062 8.535156 11.203125 8.441406 11.226562 8.332031 C 11.25 8.222656 11.261719 8.105469 11.261719 7.984375 C 11.261719 7.867188 11.25 7.75 11.226562 7.644531 C 11.207031 7.542969 11.167969 7.445312 11.109375 7.359375 C 11.058594 7.277344 10.988281 7.210938 10.90625 7.164062 C 10.808594 7.113281 10.703125 7.089844 10.597656 7.09375 Z M 14.921875 7.09375 C 14.816406 7.089844 14.707031 7.113281 14.613281 7.164062 C 14.53125 7.210938 14.457031 7.277344 14.40625 7.359375 C 14.347656 7.445312 14.308594 7.542969 14.289062 7.644531 C 14.265625 7.757812 14.253906 7.871094 14.253906 7.984375 C 14.253906 8.105469 14.265625 8.222656 14.289062 8.332031 C 14.3125 8.441406 14.351562 8.535156 14.40625 8.617188 C 14.457031 8.699219 14.53125 8.765625 14.613281 8.816406 C 14.699219 8.863281 14.800781 8.886719 14.921875 8.886719 C 15.042969 8.886719 15.144531 8.863281 15.230469 8.816406 C 15.3125 8.765625 15.382812 8.699219 15.433594 8.617188 C 15.488281 8.535156 15.527344 8.441406 15.550781 8.332031 C 15.574219 8.222656 15.585938 8.105469 15.585938 7.984375 C 15.585938 7.867188 15.574219 7.75 15.550781 7.644531 C 15.527344 7.542969 15.488281 7.445312 15.433594 7.359375 C 15.382812 7.277344 15.3125 7.210938 15.230469 7.164062 C 15.136719 7.113281 15.027344 7.089844 14.921875 7.09375 Z M 9.230469 7.136719 L 8.671875 7.550781 L 8.878906 7.835938 L 9.195312 7.59375 L 9.195312 8.84375 L 9.597656 8.84375 L 9.597656 7.136719 Z M 13.554688 7.136719 L 12.992188 7.550781 L 13.203125 7.835938 L 13.519531 7.59375 L 13.519531 8.84375 L 13.921875 8.84375 L 13.921875 7.136719 Z M 10.597656 7.433594 C 10.652344 7.433594 10.691406 7.453125 10.726562 7.492188 C 10.761719 7.53125 10.785156 7.574219 10.800781 7.632812 C 10.820312 7.6875 10.832031 7.746094 10.839844 7.8125 C 10.851562 7.929688 10.851562 8.046875 10.839844 8.164062 C 10.832031 8.230469 10.820312 8.289062 10.800781 8.347656 C 10.789062 8.398438 10.761719 8.445312 10.726562 8.484375 C 10.695312 8.523438 10.648438 8.542969 10.597656 8.542969 C 10.546875 8.542969 10.5 8.523438 10.46875 8.484375 C 10.433594 8.445312 10.40625 8.398438 10.390625 8.347656 C 10.371094 8.289062 10.359375 8.226562 10.351562 8.164062 C 10.339844 8.046875 10.339844 7.929688 10.351562 7.8125 C 10.359375 7.746094 10.371094 7.6875 10.390625 7.628906 C 10.40625 7.578125 10.433594 7.53125 10.46875 7.492188 C 10.5 7.453125 10.546875 7.433594 10.597656 7.433594 Z M 14.921875 7.433594 C 14.976562 7.433594 15.019531 7.453125 15.050781 7.492188 C 15.085938 7.53125 15.109375 7.574219 15.125 7.632812 C 15.144531 7.6875 15.15625 7.746094 15.164062 7.8125 C 15.175781 7.929688 15.175781 8.046875 15.164062 8.164062 C 15.15625 8.230469 15.144531 8.289062 15.125 8.347656 C 15.109375 8.398438 15.085938 8.445312 15.050781 8.484375 C 15.019531 8.523438 14.972656 8.542969 14.921875 8.542969 C 14.871094 8.542969 14.824219 8.523438 14.792969 8.484375 C 14.757812 8.445312 14.730469 8.398438 14.714844 8.347656 C 14.695312 8.289062 14.683594 8.226562 14.675781 8.164062 C 14.664062 8.046875 14.664062 7.929688 14.675781 7.8125 C 14.683594 7.746094 14.695312 7.6875 14.714844 7.628906 C 14.730469 7.578125 14.757812 7.53125 14.792969 7.492188 C 14.824219 7.453125 14.871094 7.433594 14.921875 7.433594 Z M 13.460938 9.773438 C 13.355469 9.773438 13.246094 9.796875 13.152344 9.847656 C 13.070312 9.894531 12.996094 9.960938 12.945312 10.042969 C 12.890625 10.125 12.851562 10.21875 12.828125 10.324219 C 12.804688 10.4375 12.792969 10.554688 12.792969 10.667969 C 12.792969 10.789062 12.804688 10.902344 12.828125 11.011719 C 12.851562 11.121094 12.890625 11.21875 12.945312 11.300781 C 12.996094 11.382812 13.070312 11.449219 13.152344 11.496094 C 13.246094 11.550781 13.355469 11.574219 13.460938 11.570312 C 13.582031 11.570312 13.683594 11.546875 13.769531 11.496094 C 13.851562 11.449219 13.921875 11.382812 13.972656 11.300781 C 14.027344 11.210938 14.066406 11.113281 14.089844 11.011719 C 14.113281 10.902344 14.125 10.789062 14.125 10.667969 C 14.125 10.546875 14.113281 10.433594 14.089844 10.324219 C 14.066406 10.226562 14.027344 10.128906 13.972656 10.042969 C 13.921875 9.960938 13.851562 9.894531 13.765625 9.847656 C 13.671875 9.796875 13.566406 9.773438 13.460938 9.777344 Z M 9.191406 9.820312 L 8.632812 10.234375 L 8.84375 10.519531 L 9.160156 10.273438 L 9.160156 11.527344 L 9.5625 11.527344 L 9.5625 9.820312 Z M 10.609375 9.820312 L 10.050781 10.234375 L 10.257812 10.519531 L 10.578125 10.273438 L 10.578125 11.527344 L 10.980469 11.527344 L 10.980469 9.820312 Z M 12.019531 9.820312 L 11.460938 10.234375 L 11.667969 10.519531 L 11.988281 10.273438 L 11.988281 11.527344 L 12.390625 11.527344 L 12.390625 9.820312 Z M 13.460938 10.117188 C 13.515625 10.117188 13.558594 10.136719 13.589844 10.175781 C 13.625 10.214844 13.648438 10.261719 13.664062 10.3125 C 13.683594 10.371094 13.695312 10.429688 13.703125 10.492188 C 13.714844 10.609375 13.714844 10.730469 13.703125 10.847656 C 13.695312 10.910156 13.683594 10.96875 13.664062 11.027344 C 13.652344 11.078125 13.625 11.128906 13.589844 11.167969 C 13.558594 11.207031 13.511719 11.226562 13.460938 11.226562 C 13.410156 11.226562 13.363281 11.207031 13.332031 11.167969 C 13.296875 11.128906 13.269531 11.078125 13.253906 11.027344 C 13.234375 10.96875 13.222656 10.910156 13.214844 10.847656 C 13.203125 10.730469 13.203125 10.609375 13.214844 10.492188 C 13.222656 10.429688 13.234375 10.371094 13.253906 10.3125 C 13.269531 10.261719 13.296875 10.214844 13.332031 10.175781 C 13.363281 10.136719 13.410156 10.117188 13.460938 10.117188 Z M 8.976562 12.164062 C 8.898438 12.164062 8.820312 12.183594 8.75 12.21875 C 8.691406 12.253906 8.636719 12.300781 8.601562 12.359375 C 8.558594 12.421875 8.53125 12.492188 8.515625 12.566406 C 8.496094 12.644531 8.488281 12.726562 8.488281 12.8125 C 8.488281 12.902344 8.496094 12.984375 8.515625 13.0625 C 8.53125 13.136719 8.558594 13.207031 8.601562 13.273438 C 8.636719 13.332031 8.691406 13.382812 8.75 13.414062 C 8.8125 13.453125 8.886719 13.46875 8.976562 13.46875 C 9.050781 13.472656 9.128906 13.453125 9.199219 13.414062 C 9.257812 13.382812 9.308594 13.332031 9.347656 13.273438 C 9.386719 13.210938 9.414062 13.144531 9.429688 13.0625 C 9.449219 12.980469 9.457031 12.898438 9.457031 12.8125 C 9.457031 12.726562 9.449219 12.644531 9.429688 12.566406 C 9.414062 12.492188 9.386719 12.421875 9.347656 12.359375 C 9.308594 12.300781 9.257812 12.253906 9.199219 12.21875 C 9.128906 12.183594 9.050781 12.164062 8.976562 12.164062 Z M 11.03125 12.164062 C 10.953125 12.164062 10.875 12.179688 10.808594 12.21875 C 10.746094 12.253906 10.695312 12.300781 10.65625 12.359375 C 10.617188 12.421875 10.585938 12.492188 10.574219 12.566406 C 10.554688 12.648438 10.546875 12.730469 10.546875 12.8125 C 10.546875 12.902344 10.554688 12.984375 10.574219 13.0625 C 10.585938 13.136719 10.617188 13.207031 10.65625 13.273438 C 10.695312 13.332031 10.746094 13.378906 10.808594 13.414062 C 10.871094 13.453125 10.945312 13.46875 11.03125 13.46875 C 11.109375 13.472656 11.1875 13.453125 11.253906 13.414062 C 11.316406 13.382812 11.367188 13.332031 11.402344 13.273438 C 11.441406 13.210938 11.46875 13.144531 11.488281 13.0625 C 11.523438 12.898438 11.523438 12.730469 11.488281 12.566406 C 11.472656 12.492188 11.445312 12.421875 11.402344 12.359375 C 11.367188 12.300781 11.316406 12.253906 11.253906 12.21875 C 11.1875 12.183594 11.109375 12.164062 11.03125 12.164062 Z M 14.4375 12.164062 C 14.359375 12.164062 14.28125 12.179688 14.214844 12.21875 C 14.152344 12.253906 14.101562 12.300781 14.0625 12.359375 C 14.023438 12.421875 13.992188 12.492188 13.976562 12.566406 C 13.960938 12.644531 13.953125 12.726562 13.953125 12.8125 C 13.953125 12.902344 13.960938 12.984375 13.976562 13.0625 C 13.992188 13.136719 14.023438 13.207031 14.0625 13.273438 C 14.101562 13.332031 14.152344 13.378906 14.214844 13.414062 C 14.273438 13.453125 14.351562 13.46875 14.4375 13.46875 C 14.523438 13.46875 14.597656 13.453125 14.660156 13.414062 C 14.71875 13.382812 14.773438 13.332031 14.808594 13.273438 C 14.847656 13.210938 14.875 13.144531 14.894531 13.0625 C 14.910156 12.980469 14.921875 12.898438 14.921875 12.8125 C 14.921875 12.726562 14.910156 12.644531 14.894531 12.566406 C 14.878906 12.492188 14.847656 12.421875 14.808594 12.359375 C 14.769531 12.300781 14.71875 12.253906 14.660156 12.21875 C 14.589844 12.183594 14.515625 12.164062 14.4375 12.164062 Z M 10 12.199219 L 9.59375 12.496094 L 9.742188 12.707031 L 9.972656 12.527344 L 9.972656 13.4375 L 10.265625 13.4375 L 10.265625 12.199219 Z M 12.042969 12.199219 L 11.636719 12.496094 L 11.789062 12.707031 L 12.019531 12.527344 L 12.019531 13.4375 L 12.3125 13.4375 L 12.3125 12.199219 Z M 15.449219 12.199219 L 15.042969 12.496094 L 15.195312 12.707031 L 15.425781 12.527344 L 15.425781 13.4375 L 15.714844 13.4375 L 15.714844 12.199219 Z M 8.976562 12.414062 C 9.011719 12.414062 9.042969 12.425781 9.066406 12.457031 C 9.09375 12.484375 9.113281 12.519531 9.125 12.554688 C 9.136719 12.597656 9.144531 12.640625 9.148438 12.6875 C 9.160156 12.773438 9.160156 12.859375 9.148438 12.945312 C 9.144531 12.988281 9.136719 13.03125 9.125 13.074219 C 9.113281 13.113281 9.09375 13.148438 9.066406 13.175781 C 9.042969 13.203125 9.011719 13.21875 8.976562 13.21875 C 8.9375 13.21875 8.90625 13.203125 8.878906 13.175781 C 8.855469 13.148438 8.835938 13.113281 8.824219 13.074219 C 8.808594 13.03125 8.800781 12.988281 8.796875 12.945312 C 8.789062 12.859375 8.789062 12.773438 8.796875 12.6875 C 8.800781 12.640625 8.808594 12.597656 8.824219 12.554688 C 8.835938 12.519531 8.855469 12.484375 8.878906 12.457031 C 8.902344 12.429688 8.9375 12.414062 8.976562 12.414062 Z M 11.03125 12.414062 C 11.070312 12.414062 11.101562 12.425781 11.125 12.457031 C 11.148438 12.484375 11.167969 12.519531 11.179688 12.554688 C 11.195312 12.597656 11.203125 12.640625 11.207031 12.6875 C 11.214844 12.773438 11.214844 12.859375 11.207031 12.945312 C 11.203125 12.988281 11.195312 13.03125 11.179688 13.074219 C 11.167969 13.113281 11.148438 13.148438 11.125 13.175781 C 11.101562 13.203125 11.066406 13.21875 11.03125 13.21875 C 10.996094 13.21875 10.960938 13.203125 10.9375 13.175781 C 10.910156 13.148438 10.890625 13.113281 10.878906 13.074219 C 10.867188 13.03125 10.859375 12.988281 10.855469 12.945312 C 10.847656 12.902344 10.847656 12.859375 10.847656 12.8125 C 10.847656 12.777344 10.847656 12.734375 10.851562 12.6875 C 10.855469 12.640625 10.867188 12.597656 10.878906 12.554688 C 10.890625 12.519531 10.910156 12.484375 10.9375 12.457031 C 10.960938 12.429688 10.996094 12.414062 11.03125 12.414062 Z M 14.4375 12.414062 C 14.476562 12.414062 14.507812 12.425781 14.53125 12.457031 C 14.554688 12.484375 14.574219 12.519531 14.585938 12.554688 C 14.597656 12.597656 14.609375 12.640625 14.613281 12.6875 C 14.621094 12.773438 14.621094 12.859375 14.613281 12.945312 C 14.609375 12.988281 14.597656 13.03125 14.585938 13.074219 C 14.574219 13.113281 14.554688 13.148438 14.53125 13.175781 C 14.507812 13.203125 14.472656 13.21875 14.4375 13.21875 C 14.402344 13.21875 14.367188 13.203125 14.34375 13.175781 C 14.316406 13.148438 14.296875 13.113281 14.285156 13.074219 C 14.273438 13.03125 14.261719 12.988281 14.257812 12.945312 C 14.253906 12.902344 14.253906 12.859375 14.253906 12.8125 C 14.253906 12.777344 14.253906 12.734375 14.257812 12.6875 C 14.261719 12.640625 14.273438 12.597656 14.285156 12.554688 C 14.296875 12.519531 14.316406 12.484375 14.34375 12.457031 C 14.367188 12.429688 14.402344 12.414062 14.4375 12.414062 Z M 13.316406 13.625 C 13.238281 13.621094 13.160156 13.640625 13.089844 13.675781 C 13.03125 13.710938 12.976562 13.757812 12.9375 13.816406 C 12.898438 13.878906 12.871094 13.949219 12.855469 14.023438 C 12.816406 14.1875 12.816406 14.355469 12.855469 14.519531 C 12.871094 14.59375 12.898438 14.667969 12.9375 14.730469 C 12.980469 14.789062 13.027344 14.839844 13.089844 14.875 C 13.152344 14.910156 13.226562 14.925781 13.316406 14.925781 C 13.390625 14.929688 13.46875 14.910156 13.539062 14.875 C 13.597656 14.839844 13.648438 14.789062 13.6875 14.730469 C 13.726562 14.671875 13.753906 14.601562 13.769531 14.519531 C 13.804688 14.355469 13.804688 14.1875 13.769531 14.023438 C 13.753906 13.949219 13.726562 13.878906 13.6875 13.816406 C 13.648438 13.757812 13.597656 13.710938 13.539062 13.675781 C 13.46875 13.640625 13.390625 13.621094 13.316406 13.625 Z M 15.355469 13.625 C 15.277344 13.621094 15.203125 13.640625 15.132812 13.675781 C 15.070312 13.710938 15.019531 13.757812 14.980469 13.816406 C 14.941406 13.878906 14.910156 13.949219 14.898438 14.023438 C 14.859375 14.1875 14.859375 14.355469 14.898438 14.519531 C 14.910156 14.59375 14.941406 14.667969 14.980469 14.730469 C 15.019531 14.789062 15.070312 14.839844 15.132812 14.875 C 15.195312 14.910156 15.269531 14.925781 15.355469 14.925781 C 15.433594 14.929688 15.511719 14.910156 15.578125 14.875 C 15.640625 14.839844 15.691406 14.789062 15.726562 14.730469 C 15.765625 14.671875 15.792969 14.601562 15.8125 14.519531 C 15.847656 14.355469 15.847656 14.1875 15.8125 14.023438 C 15.796875 13.949219 15.769531 13.878906 15.726562 13.816406 C 15.691406 13.757812 15.640625 13.710938 15.578125 13.675781 C 15.511719 13.640625 15.433594 13.621094 15.355469 13.625 Z M 14.328125 13.65625 L 13.917969 13.957031 L 14.070312 14.164062 L 14.300781 13.984375 L 14.300781 14.894531 L 14.59375 14.894531 L 14.59375 13.65625 Z M 13.316406 13.871094 C 13.351562 13.871094 13.382812 13.886719 13.40625 13.914062 C 13.433594 13.941406 13.453125 13.976562 13.460938 14.015625 C 13.476562 14.054688 13.484375 14.101562 13.488281 14.144531 C 13.496094 14.230469 13.496094 14.316406 13.488281 14.402344 C 13.484375 14.445312 13.476562 14.492188 13.460938 14.535156 C 13.453125 14.570312 13.433594 14.605469 13.40625 14.632812 C 13.382812 14.660156 13.351562 14.675781 13.316406 14.675781 C 13.277344 14.675781 13.242188 14.660156 13.21875 14.632812 C 13.195312 14.605469 13.175781 14.570312 13.164062 14.535156 C 13.148438 14.492188 13.140625 14.445312 13.136719 14.402344 C 13.132812 14.359375 13.128906 14.316406 13.128906 14.273438 C 13.128906 14.234375 13.132812 14.191406 13.136719 14.144531 C 13.140625 14.101562 13.148438 14.054688 13.164062 14.015625 C 13.175781 13.972656 13.195312 13.941406 13.21875 13.914062 C 13.242188 13.886719 13.277344 13.871094 13.316406 13.871094 Z M 15.355469 13.871094 C 15.394531 13.871094 15.425781 13.886719 15.449219 13.914062 C 15.476562 13.941406 15.492188 13.976562 15.503906 14.015625 C 15.519531 14.054688 15.527344 14.101562 15.53125 14.144531 C 15.539062 14.230469 15.539062 14.316406 15.53125 14.402344 C 15.527344 14.445312 15.519531 14.492188 15.503906 14.535156 C 15.492188 14.570312 15.472656 14.605469 15.449219 14.632812 C 15.425781 14.660156 15.390625 14.675781 15.355469 14.675781 C 15.320312 14.675781 15.285156 14.660156 15.261719 14.632812 C 15.234375 14.605469 15.21875 14.570312 15.207031 14.535156 C 15.191406 14.492188 15.183594 14.445312 15.179688 14.402344 C 15.171875 14.316406 15.171875 14.230469 15.179688 14.144531 C 15.183594 14.101562 15.191406 14.054688 15.207031 14.015625 C 15.21875 13.972656 15.238281 13.941406 15.261719 13.914062 C 15.285156 13.886719 15.320312 13.871094 15.355469 13.871094 Z M 8.882812 13.996094 C 8.828125 13.992188 8.773438 14.007812 8.726562 14.03125 C 8.683594 14.054688 8.648438 14.089844 8.621094 14.128906 C 8.59375 14.171875 8.574219 14.222656 8.5625 14.273438 C 8.550781 14.328125 8.542969 14.386719 8.542969 14.445312 C 8.542969 14.503906 8.550781 14.5625 8.5625 14.617188 C 8.574219 14.667969 8.59375 14.71875 8.621094 14.761719 C 8.648438 14.804688 8.683594 14.835938 8.726562 14.863281 C 8.773438 14.886719 8.828125 14.902344 8.882812 14.898438 C 8.941406 14.898438 8.992188 14.886719 9.035156 14.863281 C 9.078125 14.835938 9.113281 14.804688 9.140625 14.761719 C 9.167969 14.71875 9.1875 14.667969 9.199219 14.617188 C 9.222656 14.503906 9.222656 14.386719 9.199219 14.273438 C 9.1875 14.222656 9.167969 14.171875 9.140625 14.128906 C 9.113281 14.089844 9.078125 14.054688 9.035156 14.03125 C 8.988281 14.007812 8.933594 13.992188 8.882812 13.996094 Z M 9.582031 14.019531 L 9.300781 14.226562 L 9.40625 14.371094 L 9.566406 14.246094 L 9.566406 14.875 L 9.769531 14.875 L 9.769531 14.019531 Z M 8.882812 14.167969 C 8.90625 14.167969 8.929688 14.175781 8.945312 14.195312 C 8.964844 14.214844 8.976562 14.242188 8.984375 14.265625 C 8.992188 14.296875 9 14.324219 9.003906 14.355469 C 9.003906 14.390625 9.007812 14.417969 9.007812 14.445312 C 9.007812 14.472656 9.003906 14.503906 9.003906 14.535156 C 9 14.566406 8.992188 14.597656 8.984375 14.625 C 8.976562 14.652344 8.964844 14.675781 8.945312 14.695312 C 8.929688 14.714844 8.90625 14.726562 8.882812 14.726562 C 8.855469 14.726562 8.832031 14.714844 8.816406 14.695312 C 8.796875 14.675781 8.785156 14.652344 8.777344 14.625 C 8.765625 14.597656 8.761719 14.566406 8.757812 14.535156 C 8.753906 14.476562 8.753906 14.417969 8.757812 14.355469 C 8.761719 14.324219 8.765625 14.296875 8.777344 14.265625 C 8.785156 14.238281 8.796875 14.214844 8.816406 14.195312 C 8.832031 14.175781 8.855469 14.167969 8.882812 14.167969 Z M 11.398438 15.097656 C 11.34375 15.09375 11.289062 15.109375 11.242188 15.132812 C 11.199219 15.15625 11.164062 15.191406 11.136719 15.230469 C 11.109375 15.273438 11.089844 15.324219 11.078125 15.375 C 11.054688 15.488281 11.054688 15.605469 11.078125 15.71875 C 11.089844 15.769531 11.109375 15.820312 11.136719 15.863281 C 11.164062 15.90625 11.199219 15.941406 11.242188 15.964844 C 11.289062 15.988281 11.34375 16 11.398438 16 C 11.453125 16 11.503906 15.988281 11.550781 15.964844 C 11.59375 15.9375 11.628906 15.90625 11.65625 15.863281 C 11.683594 15.820312 11.703125 15.769531 11.714844 15.71875 C 11.738281 15.605469 11.738281 15.488281 11.714844 15.375 C 11.703125 15.324219 11.683594 15.273438 11.65625 15.230469 C 11.628906 15.191406 11.59375 15.15625 11.550781 15.132812 C 11.503906 15.109375 11.453125 15.09375 11.398438 15.097656 Z M 12.097656 15.121094 L 11.816406 15.328125 L 11.921875 15.46875 L 12.082031 15.347656 L 12.082031 15.976562 L 12.285156 15.976562 L 12.285156 15.121094 Z M 11.398438 15.269531 C 11.425781 15.269531 11.445312 15.277344 11.464844 15.296875 C 11.480469 15.316406 11.492188 15.339844 11.5 15.367188 C 11.511719 15.398438 11.515625 15.425781 11.519531 15.457031 C 11.527344 15.515625 11.527344 15.578125 11.519531 15.636719 C 11.515625 15.667969 11.511719 15.699219 11.5 15.726562 C 11.492188 15.753906 11.480469 15.777344 11.464844 15.796875 C 11.445312 15.816406 11.421875 15.828125 11.398438 15.824219 C 11.375 15.828125 11.347656 15.816406 11.332031 15.796875 C 11.316406 15.777344 11.300781 15.753906 11.292969 15.726562 C 11.285156 15.699219 11.277344 15.667969 11.273438 15.636719 C 11.269531 15.578125 11.269531 15.515625 11.273438 15.457031 C 11.277344 15.425781 11.285156 15.398438 11.292969 15.367188 C 11.300781 15.339844 11.316406 15.316406 11.332031 15.296875 C 11.347656 15.277344 11.375 15.269531 11.398438 15.269531 Z M 11.398438 15.269531 "/>
</g>
</svg>
